<svg xmlns="http://www.w3.org/2000/svg" xmlns:xlink="http://www.w3.org/1999/xlink" version="1.1" x="0px" y="0px" viewBox="0 0 106.974 152.645" style="enable-background:new 0 0 106.974 122.116;" xml:space="preserve"><g><path fill="#fff" d="M78.703,1.465c-0.325-0.28-0.572-0.503-0.788-0.699c-0.196-0.177-0.375-0.34-0.596-0.528   c-0.311-0.265-0.771-0.313-1.142-0.121l-3.226,1.674c-0.336,0.175-0.54,0.516-0.532,0.891l0.03,1.541   C75.686,3.788,77.731,2.34,78.703,1.465z"/><path fill="#fff" d="M3.603,110.345c-1.619-1.244-3.013-1.775-3.56-1.377c-0.331,1.151,1.27,6.311,4.724,10.175   c1.531,1.714,3.804,3.538,6.116,2.806C11.667,119.772,7.865,113.621,3.603,110.345z"/><path fill="#fff" d="M82.482,3.626c-0.596-0.157-1.438-0.507-2.164-0.932c-1.13,1.092-3.774,3.114-8.086,3.559   c-0.076,0.144-0.164,0.283-0.275,0.409c-2.375,2.689-2.161,7.579-1.914,13.241c0.179,4.091,0.382,8.729-0.333,13.462   c-1.533,10.16-8.57,18.861-18.365,22.708c-1.403,0.551-2.878,1.099-4.404,1.666C31.836,63.349,13.036,70.331,7.789,99.426   c-0.03,0.17-0.105,0.33-0.216,0.463l-5.936,7.119c0.865,0.247,1.912,0.774,3.184,1.751c3.428,2.635,7.328,7.623,8.04,11.402   c3.478-2.929,7.281-3.893,11.341-2.854c5.718,1.468,11.831,1.853,18.167,1.141c39.269-4.398,62.129-38.477,64.416-69.866   C108.459,25.592,98.92,7.945,82.482,3.626z M97.432,49.288c-7.379,29.444-37.381,59.17-64.204,63.612   c-0.056,0.01-0.11,0.014-0.165,0.014c-0.48,0-0.904-0.347-0.985-0.837c-0.09-0.545,0.278-1.06,0.823-1.149   c25.675-4.253,55.508-33.864,62.591-62.126c2.852-11.379,3.211-27.278-11.267-38.404c-0.438-0.337-0.52-0.965-0.184-1.402   c0.336-0.438,0.965-0.521,1.402-0.184C100.782,20.598,100.429,37.329,97.432,49.288z"/></g></svg>