<svg xmlns="http://www.w3.org/2000/svg" viewBox="0 0 32 40" x="0px" y="0px"><defs><style>.cls-1{fill:#fff;}</style></defs><rect class="cls-1" x="21" y="15" width="2" height="2"/><rect class="cls-1" x="9" y="15" width="2" height="2"/><path class="cls-1" d="M29.07,8.93A10,10,0,0,0,16,8a10,10,0,1,0,0,16A10,10,0,0,0,29.07,8.93ZM27.66,21.66a8,8,0,0,1-10.17.95,8.66,8.66,0,0,1-1.15-.95c-.12-.12-.23-.25-.34-.38-.11.13-.22.26-.34.38a9.35,9.35,0,0,1-1.15.95,8,8,0,1,1,0-13.22,9.35,9.35,0,0,1,1.15.95c.12.12.23.25.34.38.11-.13.22-.26.34-.38a8.66,8.66,0,0,1,1.15-.95A8,8,0,0,1,27.66,21.66Z"/></svg>