<svg xmlns="http://www.w3.org/2000/svg" xmlns:xlink="http://www.w3.org/1999/xlink" version="1.1" x="0px" y="0px" viewBox="0 0 100 125" style="enable-background:new 0 0 100 100;" xml:space="preserve">  <g fill="#ffffff">  <path d="M86.8886871,44.7983284l0.6870728,0.2046509c0.2314453-1.0057373,0.362915-2.0232544,0.3991699-3.0422974   l-0.7112427,0.017334c-0.0087891,0-0.0166016,0-0.0244141,0c-0.5410156,0-0.9863281-0.4316406-1-0.9755859   c-0.0126953-0.5517578,0.4238281-1.0107422,0.9755859-1.0244141l0.72229-0.0176392   c-0.0897217-1.0215454-0.2756958-2.0328369-0.5552979-3.0194702l-0.6806641,0.2402344   c-0.1103516,0.0380859-0.2226563,0.0566406-0.3330078,0.0566406c-0.4121094,0-0.7978516-0.2568359-0.9433594-0.6669922   c-0.1835938-0.5205078,0.0898438-1.0917969,0.6103516-1.2763672l0.6704102-0.2366333   c-0.3964844-0.9396362-0.8815308-1.8438721-1.4556885-2.7015991l-0.5692139,0.4353027   c-0.1816406,0.1386719-0.3945313,0.2060547-0.6064453,0.2060547c-0.3007813,0-0.5986328-0.1347656-0.7949219-0.3925781   c-0.3359375-0.4384766-0.2519531-1.0664063,0.1865234-1.4013672l0.5656128-0.4324951   c-0.6622314-0.7631836-1.4033813-1.4706421-2.2235107-2.1137695l-0.4036255,0.5853271   c-0.1943359,0.28125-0.5068359,0.4326172-0.8242188,0.4326172c-0.1953125,0-0.3935547-0.0576172-0.5664063-0.1767578   c-0.4550781-0.3134766-0.5693512-0.9365234-0.2558594-1.390625l0.4104614-0.5952759   c-0.8936157-0.538147-1.8209229-0.9783325-2.7705078-1.3259888l-0.2053833,0.6917725   c-0.1298828,0.4345703-0.5273438,0.7148438-0.9589844,0.7148438c-0.09375,0-0.1904297-0.0136719-0.2851563-0.0410156   c-0.5292969-0.1582031-0.8310547-0.7148438-0.6728516-1.2441406l0.2069702-0.6970825   c-1.0061646-0.2315063-2.0256958-0.355896-3.045105-0.3921509l0.0178223,0.7132568   c0.0136719,0.5527344-0.4228516,1.0117188-0.9746094,1.0253906c-0.0087891,0-0.0175781,0-0.0253906,0   c-0.5410156,0-0.9863281-0.4316406-1-0.9746094l-0.0178833-0.7156982   c-1.0213623,0.0896606-2.0318604,0.2745972-3.0183105,0.5540771l0.2383423,0.675293   c0.1835938,0.5205078-0.0898438,1.0917969-0.6103516,1.2763672c-0.1103516,0.0380859-0.2226563,0.0566406-0.3330078,0.0566406   c-0.4121094,0-0.7978516-0.2568359-0.9433594-0.6669922l-0.2398071-0.6794434   c-0.9401245,0.3966064-1.8472939,0.880249-2.7053871,1.4547729l0.4432373,0.5791626   c0.3359375,0.4384766,0.2519531,1.0654297-0.1865234,1.4013672c-0.1806641,0.1386719-0.3945313,0.2060547-0.6064453,0.2060547   c-0.3007813,0-0.5986328-0.1347656-0.7949219-0.3925781l-0.4446411-0.5809326   c-0.7640991,0.663208-1.4746094,1.4064331-2.1184692,2.2279053l0.6011963,0.4145508   c0.4550781,0.3134766,0.5693359,0.9365234,0.2558594,1.390625c-0.1943359,0.28125-0.5068359,0.4326172-0.8242188,0.4326172   c-0.1953125,0-0.3935547-0.0576172-0.5664063-0.1767578l-0.5870361-0.4047852   c-0.53479,0.8865356-0.9779053,1.8110352-1.3295898,2.7659302l0.6881104,0.2042847   c0.5292969,0.1582031,0.8310547,0.7148438,0.6738281,1.2441406c-0.1298828,0.4345703-0.5273438,0.7148438-0.9589844,0.7148438   c-0.09375,0-0.1904297-0.0136719-0.2851563-0.0419922l-0.6981812-0.2072754   c-0.2310791,0.9977417-0.3635254,2.0160522-0.3996582,3.0455933l0.7218628-0.0180054c0.0087891,0,0.0175781,0,0.0253906,0   c0.5410156,0,0.9863281,0.4316406,1,0.9746094c0.0136719,0.5527344-0.4228516,1.0117188-0.9746094,1.0253906l-0.7286987,0.0181885   c0.045105,0.5077515,0.1109009,1.0161133,0.2042847,1.5238037c0.0934448,0.5081177,0.2128906,1.007019,0.3515625,1.4979248   l0.6875-0.2420654c0.5195313-0.1796875,1.0927734,0.0898438,1.2753906,0.6113281   c0.1835938,0.5205078-0.0898438,1.0917969-0.6113281,1.2753906l-0.6808472,0.2397461   c0.4002686,0.9494019,0.8865356,1.8540649,1.4577026,2.7042847l0.5776367-0.4420776   c0.4375-0.3349609,1.0673828-0.2529297,1.4013672,0.1865234c0.3359375,0.4384766,0.2519531,1.0654297-0.1865234,1.4013672   l-0.5693359,0.43573c0.6685791,0.767334,1.4116821,1.4736938,2.2269897,2.1120605l0.4038696-0.5858765   c0.3134766-0.4550781,0.9355469-0.5693359,1.390625-0.2558594c0.4550819,0.3134766,0.5693398,0.9365234,0.2558594,1.390625   l-0.4039917,0.5860596c0.8864784,0.53479,1.8107338,0.9778442,2.7654457,1.3295898l0.2039795-0.6871338   c0.1582031-0.5292969,0.7128754-0.8261719,1.2441406-0.6738281c0.5292969,0.1582031,0.8310547,0.7148438,0.6728516,1.2441406   l-0.2070313,0.6973877c0.9975586,0.2311401,2.0158081,0.3635864,3.0453491,0.3999023l-0.0180054-0.7213135   c-0.0136719-0.5527344,0.4228516-1.0117188,0.9746094-1.0253906c0.0087891,0,0.0175781,0,0.0253906,0   c0.5410156,0,0.9863281,0.4316406,1,0.9746094l0.0181885,0.7283936c0.5080566-0.0449829,1.0166626-0.1107178,1.5247803-0.2039795   c0.5078125-0.0933838,1.0064087-0.2128296,1.4970703-0.3514404l-0.2421875-0.6866455   c-0.1835938-0.5214844,0.0898438-1.0927734,0.6103516-1.2763672c0.5244141-0.1796875,1.0917969,0.0908203,1.2763672,0.6103516   l0.2404785,0.6818237c0.9490967-0.4002075,1.8536377-0.8863525,2.7037964-1.4573975l-0.4423218-0.5779419   c-0.3359528-0.4384766-0.2519531-1.0654297,0.1865234-1.4013672c0.4375-0.3349609,1.0673828-0.2519531,1.4013672,0.1865234   l0.4360962,0.5697632c0.7675171-0.6685791,1.473999-1.4118042,2.1124268-2.2271729l-0.5866089-0.4041138   c-0.4550781-0.3134766-0.5693359-0.9355469-0.2558594-1.390625c0.3125-0.453125,0.9365234-0.5683594,1.390625-0.2558594   l0.585144,0.4030762c0.5377197-0.8930664,0.9786987-1.8180542,1.3261719-2.7670898l-0.6828003-0.2033691   c-0.5292969-0.1572266-0.8310547-0.7138672-0.6728516-1.2431641   C85.8027496,44.9418831,86.3574371,44.6401253,86.8886871,44.7983284z M77.9453278,39.68993   c-0.3144531,0.453125-0.9375,0.5683594-1.390625,0.2558594l-3.0966797-2.1347656   c-0.3085938-0.2128906-0.6845703-0.2900391-1.0488281-0.2246094c-0.3681641,0.0683594-0.6875,0.2744141-0.9003906,0.5830078   c-0.4619141,0.6689453-0.3007813,1.5429688,0.3349609,1.9814453l1.0810547,0.7451172   c0.0097656,0.0068359,0.0185547,0.0126953,0.0283203,0.0195313c1.5410156,1.0888672,1.9384766,3.2050781,0.8818359,4.7382813   c-0.5380859,0.78125-1.3144531,1.2832031-2.2080078,1.4482422c-0.2070313,0.0380859-0.4150391,0.0566406-0.6220703,0.0566406   c-0.5770874,0-1.1386719-0.1557617-1.6466064-0.4402466l-0.4451904,0.6463013   c-0.1933594,0.28125-0.5058594,0.4326172-0.8242188,0.4326172c-0.1953125,0-0.3935547-0.0576172-0.5664063-0.1767578   c-0.4550781-0.3134766-0.5693359-0.9355469-0.2558594-1.390625l0.4318237-0.6268311l-1.7140503-1.1817627   c-0.4550781-0.3134766-0.5693359-0.9365234-0.2558594-1.390625c0.3134766-0.4550781,0.9365234-0.5693359,1.390625-0.2558594   l2.5361938,1.7486572c0.0003052,0.0001831,0.0006104,0.0001831,0.0009155,0.0003662s0.0003662,0.0005493,0.0006714,0.0007324   l0.5598755,0.3859863c0.3076172,0.2119141,0.6787109,0.2910156,1.0488281,0.2236328   c0.3681641-0.0673828,0.6875-0.2744141,0.8994141-0.5820313c0.4609375-0.6689453,0.2802734-1.5576172-0.3798828-2.0126953   c-0.0078125-0.0048828-0.0146484-0.0097656-0.0224609-0.015625l-1.0537109-0.7265625   c-0.7480469-0.5146484-1.25-1.2910156-1.4150391-2.1845703c-0.1640625-0.8935547,0.0292969-1.7978516,0.5449219-2.5458984   c0.5380859-0.7802734,1.3144531-1.2832031,2.2080078-1.4472656c0.7875366-0.1444092,1.5755615,0.003418,2.2647705,0.3890381   l0.4500732-0.65271c0.3125-0.4550781,0.9365234-0.5693359,1.390625-0.2558594   c0.4550781,0.3134766,0.5693359,0.9365234,0.2558594,1.390625l-0.4324951,0.6271973l1.7137451,1.1813965   C78.1445465,38.6127815,78.2588043,39.2358284,77.9453278,39.68993z"/><path d="M47.7988396,70.4545746l0.9351196,0.0988159c0.0632324-1.2357178-0.0009155-2.4907837-0.1981201-3.7550049   l-0.916687,0.1942749c-0.0693359,0.0146484-0.1396484,0.0214844-0.2080078,0.0214844   c-0.4619141,0-0.8779297-0.3222656-0.9775391-0.7929688c-0.1142731-0.5400391,0.2304688-1.0703125,0.7714844-1.1855469   l0.9224243-0.1954956c-0.3325806-1.2358971-0.7730713-2.4173546-1.3323975-3.5216026l-0.8322144,0.4797974   c-0.1572266,0.0908203-0.3291016,0.1337891-0.4980469,0.1337891c-0.3457031,0-0.6826172-0.1796875-0.8671875-0.5009766   c-0.2763672-0.4775391-0.1113281-1.0898438,0.3671875-1.3652344l0.8225098-0.4742432   c-0.692627-1.0601807-1.4898071-2.0352783-2.3728027-2.9202271l-0.6293945,0.6981812   c-0.1982422,0.21875-0.4697266,0.3300781-0.7431641,0.3300781c-0.2392578,0-0.4785156-0.0849609-0.6699219-0.2568359   c-0.4101563-0.3701172-0.4423828-1.0029297-0.0732422-1.4130859l0.6356812-0.7052002   c-0.979187-0.7888794-2.0426636-1.4648438-3.1610107-2.0397949l-0.381897,0.8553467   c-0.1660156,0.3720703-0.53125,0.5927734-0.9140625,0.5927734c-0.1357422,0-0.2744141-0.0273438-0.40625-0.0869141   c-0.5048828-0.2255859-0.7314453-0.8164063-0.5058594-1.3203125l0.3837891-0.8596191   c-1.1674805-0.4482422-2.3817749-0.7837524-3.6322632-0.9867554l-0.1001587,0.947937   c-0.0537109,0.5126953-0.4882813,0.8945313-0.9931641,0.8945313c-0.0351563,0-0.0703125-0.0019531-0.1064453-0.0058594   c-0.5488262-0.0576172-0.9472637-0.5498047-0.88867-1.0996094l0.0993652-0.9400635   c-0.3094482-0.0158691-0.6174316-0.0404053-0.9294434-0.0404053c-0.9343872,0-1.8792725,0.0974121-2.8267822,0.2451172   l0.1939697,0.9150391c0.1142578,0.5400391-0.2304688,1.0703125-0.7714844,1.1855469   c-0.0693359,0.0146484-0.1396484,0.0214844-0.2080078,0.0214844c-0.4619141,0-0.8779297-0.3222656-0.9775391-0.7929688   l-0.1945801-0.9179688c-1.2272949,0.3293457-2.4029541,0.7766724-3.5166626,1.3381348l0.473938,0.8220215   c0.2763672,0.4775391,0.1113281,1.0898438-0.3671875,1.3652344c-0.1572266,0.0908203-0.3291016,0.1337891-0.4980469,0.1337891   c-0.3457031,0-0.6826172-0.1796875-0.8671875-0.5009766l-0.4766235-0.8267212   c-1.0523071,0.6851807-2.0345459,1.4733887-2.9287109,2.366333l0.710022,0.6400757   c0.4101563,0.3701172,0.4423828,1.0029297,0.0732422,1.4130859c-0.1982422,0.21875-0.4697266,0.3300781-0.7431641,0.3300781   c-0.2392578,0-0.4785156-0.0849609-0.6699219-0.2568359l-0.7127075-0.6424561   c-0.3917847,0.4872437-0.7631836,0.9949951-1.1085815,1.5262451c-0.3453369,0.5310669-0.6587524,1.076355-0.9450684,1.632019   l0.876709,0.3914185c0.5048828,0.2255859,0.7314453,0.8164063,0.5058594,1.3203125   c-0.1660156,0.3720703-0.53125,0.5927734-0.9140625,0.5927734c-0.1357422,0-0.2744141-0.0273438-0.40625-0.0869141   l-0.873291-0.3898926c-0.4536743,1.1798668-0.7757568,2.3978844-0.9752197,3.6381798l0.9490967,0.1003418   c0.5488281,0.0576172,0.9472656,0.5498047,0.8886719,1.0996094c-0.0537109,0.5126953-0.4882813,0.8945313-0.9931641,0.8945313   c-0.0351563,0-0.0703125-0.0019531-0.1064453-0.0058594l-0.9423218-0.0996094   c-0.0614624,1.2457886,0.0066528,2.5018921,0.2034302,3.7573242l0.9195557-0.1948242   c0.5400391-0.1152344,1.0712891,0.2314453,1.1855469,0.7714844s-0.2314453,1.0712891-0.7714844,1.1855469l-0.9189453,0.1947021   c0.3292847,1.2272339,0.7766113,2.40271,1.3380127,3.5162964l0.821167-0.4736938   c0.4765625-0.2763672,1.0888672-0.1123047,1.3662109,0.3662109c0.2763672,0.4785156,0.1123047,1.0898438-0.3662109,1.3662109   l-0.8273315,0.4772339c0.6851807,1.0523071,1.4735107,2.0344849,2.3665161,2.9285889l0.6405029-0.7105103   c0.3710938-0.4101563,1.0029297-0.4423828,1.4130859-0.0732422c0.4101563,0.3701172,0.4423828,1.0029297,0.0732422,1.4130859   l-0.6428833,0.7131958c0.4870605,0.3916626,0.9946289,0.7628174,1.5256958,1.1080933   c0.531189,0.3455811,1.0765991,0.6591187,1.6323242,0.9454956l0.3911133-0.8771362   c0.2246094-0.5039063,0.8164063-0.734375,1.3203125-0.5058594c0.5048828,0.2246094,0.7314453,0.8164063,0.5058594,1.3203125   l-0.3896484,0.8737793c1.1801147,0.4536743,2.3983154,0.7757568,3.638916,0.9749756l0.1003418-0.9493408   c0.0576172-0.5488281,0.5449219-0.9501953,1.0996094-0.8886719c0.5488281,0.0576172,0.9472656,0.5498047,0.8886719,1.0996094   l-0.0996094,0.9421387c1.2453003,0.0612183,2.5009766-0.0068359,3.7562847-0.2034302l-0.1947632-0.9193726   c-0.1142578-0.5400391,0.2314453-1.0712891,0.7714844-1.1855469c0.5400391-0.1152344,1.0712891,0.2314453,1.1855469,0.7714844   l0.1942749,0.9169312c1.2356567-0.3326416,2.4089355-0.7833252,3.5129395-1.3425293l-0.4699097-0.8146362   c-0.2763672-0.4785156-0.1123047-1.0898438,0.3662109-1.3662109c0.4765625-0.2753906,1.0888672-0.1123047,1.3662109,0.3662109   l0.4712524,0.8168945c1.0599365-0.6925049,2.039917-1.4831543,2.9246216-2.3659668l-0.699585-0.6306152   c-0.4101563-0.3701172-0.4423828-1.0029297-0.0732422-1.4130859c0.3710938-0.4111328,1.0019531-0.4423828,1.4130859-0.0732422   l0.7038574,0.6345215c0.7890015-0.9793091,1.4761353-2.036377,2.0510864-3.1549072l-0.8652954-0.3858643   c-0.5048828-0.2246094-0.7314453-0.8164063-0.5058594-1.3203125c0.2246094-0.5039063,0.8173828-0.734375,1.3203125-0.5058594   l0.8599243,0.3834839c0.4480591-1.1671143,0.7732544-2.3839111,0.9761963-3.6340332l-0.9376831-0.0990601   c-0.5488281-0.0576172-0.9472656-0.5498047-0.8886719-1.0996094C46.7568474,70.7944183,47.2431755,70.391098,47.7988396,70.4545746   z M34.8281364,74.1801605c-0.4969482,0.765625-1.2474365,1.2952271-2.1187134,1.5377808l0.2095337,0.9885864   c0.1142578,0.5400391-0.2304688,1.0703125-0.7714844,1.1855469c-0.0693359,0.0146484-0.1396484,0.0214844-0.2080059,0.0214844   c-0.4619141,0-0.8779297-0.3222656-0.9775391-0.7929688l-0.2046509-0.9655151l-2.4262085,0.5143433   c-0.0693359,0.0146484-0.1396484,0.0214844-0.2080078,0.0214844c-0.4619141,0-0.8779297-0.3222656-0.9775391-0.7929688   c-0.1142578-0.5400391,0.2304688-1.0703125,0.7714844-1.1855469l3.4042358-0.7216187l0.000061-0.000061h0.000061   l0.7509136-0.1591797c0.4462891-0.0947266,0.8300781-0.3574219,1.0791016-0.7412109   c0.2490234-0.3828125,0.3339844-0.8408203,0.2392578-1.2880859c-0.2021484-0.9589844-1.1201172-1.5400391-2.07617-1.3544922   c-0.0048828,0.0009766-0.0107422,0.0029297-0.015625,0.0039063l-1.4492188,0.3066406   c-0.9707031,0.2060547-1.9599609,0.0214844-2.7919922-0.5195313c-0.8310547-0.5400391-1.4013672-1.3720703-1.6074219-2.3417969   c-0.2148438-1.0136719-0.0302734-2.0058594,0.5107422-2.8359375c0.4970093-0.765686,1.2476196-1.2953453,2.1188965-1.5370445   l-0.2097168-0.9893188c-0.1142578-0.5400391,0.2304688-1.0703125,0.7714844-1.1855469   c0.5380859-0.1123047,1.0712891,0.2304688,1.1855469,0.7714844l0.204834,0.9663696l2.4250469-0.5142212   c0.5371094-0.1132813,1.0712891,0.2314453,1.1855469,0.7714844s-0.2304688,1.0703087-0.7714844,1.1855431l-4.154295,0.8808594   c-0.4472656,0.0947266-0.8300781,0.3574219-1.0791016,0.7402344c-0.25,0.3837891-0.3349609,0.8408203-0.2402344,1.2880859   c0.1044922,0.4902344,0.3671875,0.8740234,0.7509766,1.1230469c0.3818359,0.2490234,0.8398438,0.3339844,1.2861328,0.2392578   l1.421875-0.3007813c0.0078125-0.0009766,0.0146484-0.0029297,0.0224609-0.0048828   c2.038084-0.4296875,4.0361309,0.8476563,4.459959,2.8486328C35.5527458,72.3578949,35.3691521,73.3491058,34.8281364,74.1801605z"/><path d="M52.1630974,24.401844c-0.0654297,0.0126953-0.1308594,0.0185547-0.1953125,0.0185547   c-0.4677734,0-0.8857422-0.3300781-0.9804688-0.8056641c-0.1064453-0.5419922,0.2460938-1.0683594,0.7871094-1.1757813   l0.4868164-0.0962524c-0.213562-0.7838745-0.4918823-1.5344238-0.8270264-2.249939l-0.432251,0.2416992   c-0.1542969,0.0859375-0.3222656,0.1269531-0.4873047,0.1269531c-0.3505859,0-0.6904297-0.1845703-0.8740234-0.5117188   c-0.2695313-0.4824219-0.0966797-1.0917969,0.3847656-1.3613281l0.430603-0.2407837   c-0.442627-0.6724854-0.9390259-1.3007202-1.4841309-1.8814697l-0.3322144,0.3585815   c-0.1972656,0.2128906-0.4648438,0.3203125-0.7333984,0.3203125c-0.2431641,0-0.4873047-0.0878906-0.6796875-0.2666016   c-0.4052734-0.375-0.4296875-1.0078135-0.0537109-1.4130869l0.3359985-0.3626099   c-0.6252441-0.5004883-1.2922363-0.9460449-1.992981-1.3337402l-0.2072754,0.4483032   c-0.1679688,0.3652344-0.5302734,0.5800781-0.9082031,0.5800781c-0.1396484,0-0.2832031-0.0292969-0.4189453-0.0927734   c-0.5009766-0.2314453-0.7197266-0.8251953-0.4873047-1.3271484l0.206665-0.4470215   c-0.7446289-0.2831421-1.5150757-0.5036621-2.305603-0.6571655l-0.0592651,0.4938354   c-0.0615234,0.5078125-0.4931641,0.8808594-0.9921875,0.8808594c-0.0390625,0-0.0800781-0.0019531-0.1201172-0.0068359   c-0.5478516-0.0664063-0.9394531-0.5634766-0.8740234-1.1123047l0.0587158-0.4894409   c-0.2206421-0.0105591-0.4398804-0.0291138-0.6622314-0.0291138c-0.572876,0-1.1516113,0.0490723-1.7319946,0.121521   l0.0952759,0.4819946c0.1064453,0.5419922-0.2460938,1.0683594-0.7871094,1.1757813   c-0.0654297,0.0126953-0.1308594,0.0185547-0.1953125,0.0185547c-0.4677734,0-0.8857422-0.3300781-0.9804688-0.8056641   l-0.0950317-0.480835c-0.7835083,0.213562-1.532959,0.4914551-2.2481689,0.826416l0.2387085,0.4268799   c0.2695313,0.4824219,0.0966797,1.0917969-0.3847656,1.3613281c-0.1542969,0.0859375-0.3222656,0.1269531-0.4873047,0.1269531   c-0.3505993,0-0.6904278-0.1845703-0.8740215-0.5117188l-0.2427979-0.4342041   c-0.6726685,0.442749-1.2962036,0.9447021-1.8771362,1.4898682l0.3562622,0.3300791   c0.4052734,0.375,0.4296875,1.0078125,0.0537109,1.4130859c-0.1972656,0.2128906-0.4648438,0.3203125-0.7333984,0.3203125   c-0.2431641,0-0.4873047-0.0878906-0.6796875-0.2666016l-0.3609009-0.3344116   c-0.5003662,0.625061-0.9467773,1.2912598-1.3344116,1.9918823l0.4472656,0.2067871   c0.5009766,0.2314453,0.7197266,0.8251953,0.4873047,1.3271484c-0.1689453,0.3652344-0.5302734,0.5800781-0.9082031,0.5800781   c-0.1396484,0-0.2832031-0.0292969-0.4189453-0.0927734l-0.4406738-0.2037354   c-0.2832031,0.7446289-0.5101929,1.512146-0.6636353,2.3026733l0.4939575,0.0592651   c0.5478516,0.0664063,0.9394531,0.5634766,0.8740234,1.1123047c-0.0615234,0.5078125-0.4931641,0.8808594-0.9921875,0.8808594   c-0.0390625,0-0.0800781-0.0019531-0.1201172-0.0068359l-0.486145-0.0583496   c-0.0377197,0.7888794-0.0095825,1.5876465,0.0909424,2.3934937l0.4801636-0.0949097   c0.5371094-0.1054688,1.0683594,0.2451172,1.1757813,0.7871094c0.1064453,0.5419922-0.2460938,1.0683594-0.7871094,1.1757813   l-0.4807739,0.0950317c0.213623,0.7834473,0.4915161,1.5328979,0.8265991,2.2480469l0.4266357-0.2385864   c0.4824219-0.2685547,1.0917969-0.0966797,1.3613281,0.3847656c0.2695313,0.4824219,0.0966797,1.0917969-0.3847656,1.3613281   l-0.4336548,0.2424927c0.442749,0.6726074,0.9447632,1.2958984,1.4899292,1.87677l0.3294678-0.3555908   c0.375-0.40625,1.0078125-0.4306641,1.4130859-0.0537109c0.4052734,0.375,0.4296875,1.0078125,0.0537109,1.4130859   l-0.3338623,0.3603516c0.625,0.5003662,1.2913208,0.9466553,1.9916992,1.3342896l0.206419-0.4465942   c0.2294922-0.5,0.8242188-0.7226563,1.3271484-0.4873047c0.5009766,0.2314453,0.7197266,0.8251953,0.4873047,1.3271484   l-0.2036133,0.4404907c0.7446289,0.2833252,1.512085,0.5105591,2.3024902,0.6641235l0.0593262-0.4942627   c0.0664063-0.5478516,0.5644531-0.9394531,1.1123047-0.8740234c0.5478516,0.0664063,0.9394531,0.5634766,0.8740234,1.1123047   l-0.0584106,0.4866943c0.7890015,0.0377808,1.5878296,0.0095825,2.3936157-0.0911865l-0.0949707-0.4804688   c-0.1064453-0.5419922,0.2460938-1.0683594,0.7871094-1.1757813c0.5380859-0.1054688,1.0683594,0.2451172,1.1757813,0.7871094   l0.0950317,0.480835c0.7835083-0.213562,1.532959-0.4914551,2.2481689-0.826416l-0.2387085-0.4268799   c-0.2695313-0.4824219-0.0966797-1.0917969,0.3847656-1.3613281c0.4824219-0.2695313,1.0917969-0.0957031,1.3613281,0.3847656   l0.2427979,0.4342041c0.6726685-0.442749,1.2962036-0.9447021,1.8771362-1.4898682l-0.3562622-0.3300781   c-0.4052734-0.375-0.4296875-1.0078125-0.0537109-1.4130859c0.375-0.40625,1.0078125-0.4306641,1.4130859-0.0537109   l0.3609009,0.3344116c0.5003662-0.625061,0.9467773-1.2912598,1.3344116-1.9918823l-0.4472656-0.2067871   c-0.5009766-0.2314453-0.7197266-0.8251953-0.4873047-1.3271484c0.2324219-0.5,0.8242188-0.7226563,1.3271484-0.4873047   l0.4406738,0.2037354c0.2832031-0.7446289,0.5101929-1.512146,0.6636353-2.3026733l-0.4939575-0.0592651   c-0.5478516-0.0664063-0.9394531-0.5634766-0.8740234-1.1123047c0.0664063-0.546875,0.5625-0.9375,1.1123047-0.8740234   l0.486145,0.0583496c0.0377197-0.7888794,0.0095825-1.5876465-0.0909424-2.3934937L52.1630974,24.401844z M40.7309074,30.938282   l0.112854,0.5709839c0.1064453,0.5419922-0.2460938,1.0683594-0.7871094,1.1757813   c-0.0654297,0.0126953-0.1308594,0.0185547-0.1953125,0.0185547c-0.4677734,0-0.8857422-0.3300781-0.9804688-0.8056641   l-0.1049805-0.5311279l-1.6635742,0.3289795c-0.0654297,0.0126953-0.1298828,0.0185547-0.1943359,0.0185547   c-0.4677734,0-0.8857422-0.3300781-0.9804688-0.8066406c-0.1064453-0.5410156,0.2460938-1.0673828,0.7880859-1.1748047   l2.6421509-0.5218506c0.0004883-0.0001221,0.0009155-0.0004883,0.0014038-0.0006104s0.0010376,0.0001221,0.0015259,0   l0.5834351-0.1152344c0.5947266-0.1171875,0.984375-0.6982422,0.8662109-1.2939453   c-0.1240234-0.6298828-0.7197266-1.015625-1.3466797-0.8916016c-0.0068359,0.0009766-0.0126953,0.0019531-0.0195313,0.0029297   l-1.1015625,0.21875c-0.8144531,0.1591797-1.6396484-0.0058594-2.328125-0.4658203   c-0.6884766-0.4609375-1.1552734-1.1630859-1.3164063-1.9755859c-0.3104248-1.5728149,0.5960083-3.0675049,2.0453491-3.5588379   l-0.1127319-0.5700684c-0.1064453-0.5419922,0.2460938-1.0683594,0.7871094-1.1757813   c0.5390625-0.1054688,1.0673828,0.2460938,1.1757813,0.7871094l0.1048584,0.5302124l1.6627197-0.3290405   c0.5390625-0.1054688,1.0673828,0.2460938,1.1757813,0.7871094c0.1064453,0.5419922-0.2451172,1.0683594-0.7871094,1.1757813   l-3.2285156,0.6386719c-0.2890625,0.0566406-0.5380859,0.2226563-0.7021484,0.4667969   c-0.1630859,0.2441406-0.2226563,0.5380859-0.1650391,0.8271484c0.0634766,0.3222656,0.2294922,0.5712891,0.4736328,0.734375   c0.2441406,0.1640625,0.5341797,0.2216797,0.8261719,0.1660156l1.1259766-0.2236328   c0.0097656-0.0009766,0.0185547-0.0029297,0.0273438-0.0048828c1.6884766-0.3134766,3.3300781,0.7714844,3.6591797,2.4384766   C43.0868645,28.9525032,42.1800041,30.4465828,40.7309074,30.938282z"/></g></svg>