<?xml version="1.0" standalone="no"?>
<!DOCTYPE svg PUBLIC "-//W3C//DTD SVG 20010904//EN"
 "http://www.w3.org/TR/2001/REC-SVG-20010904/DTD/svg10.dtd">
<svg version="1.0" xmlns="http://www.w3.org/2000/svg"
 width="1280.000000pt" height="1220.000000pt" viewBox="0 0 1280.000000 1220.000000"
 preserveAspectRatio="xMidYMid meet">
<metadata>
Created by potrace 1.15, written by Peter Selinger 2001-2017
</metadata>
<g transform="translate(0.000000,1220.000000) scale(0.100000,-0.100000)"
fill="#fff" stroke="none">
<path d="M5895 12185 c-454 -58 -720 -253 -953 -695 -94 -179 -126 -262 -409
-1084 l-158 -460 -74 -43 c-156 -92 -309 -200 -372 -262 -60 -60 -70 -76 -106
-171 -22 -58 -73 -205 -113 -327 l-73 -222 -135 -3 -134 -3 -29 -33 c-16 -18
-34 -52 -41 -76 l-12 -44 -60 -6 c-34 -3 -466 -20 -961 -37 -590 -21 -904 -36
-912 -43 -14 -13 -14 -10 -143 -901 -55 -379 -105 -721 -111 -760 -12 -75
-169 -978 -500 -2870 -38 -220 -101 -578 -139 -795 -38 -217 -157 -898 -265
-1512 l-195 -1117 74 -178 75 -178 273 -27 c150 -15 449 -47 663 -72 443 -52
561 -60 1096 -81 986 -37 2561 -44 3489 -14 296 9 429 9 575 0 1021 -62 1775
-98 2525 -121 631 -19 1740 -9 2285 21 329 18 383 17 550 -13 242 -43 329 -52
535 -52 223 -1 271 8 406 74 60 29 96 55 135 98 112 121 124 186 115 607 -6
296 -17 473 -42 670 -19 158 -39 232 -86 335 -94 203 -88 180 -207 790 -34
174 -289 1477 -422 2160 -22 113 -47 239 -55 280 -7 41 -14 115 -14 164 0 88
-15 181 -210 1271 -22 121 -62 346 -89 500 -28 154 -109 647 -181 1095 -72
448 -133 828 -136 843 l-6 28 -536 -5 c-296 -4 -663 -9 -817 -12 l-280 -5 -13
77 c-25 157 -128 311 -256 380 -28 15 -80 58 -116 94 -66 67 -147 117 -228
141 -28 8 -47 20 -52 34 -6 15 -23 25 -63 35 -31 7 -59 16 -64 19 -18 12 -296
492 -337 582 -58 126 -81 474 -52 794 29 325 18 482 -47 654 -41 108 -92 186
-168 254 -78 71 -148 104 -285 133 -403 85 -734 31 -1052 -173 -36 -23 -60
-32 -68 -27 -227 159 -375 229 -584 279 -93 22 -303 27 -435 10z m455 -284
c36 -10 85 -26 110 -35 67 -25 270 -126 270 -135 0 -22 -399 -393 -675 -628
-287 -243 -915 -734 -915 -715 0 16 128 448 186 628 42 129 72 201 121 290
298 539 547 702 903 595z m1478 -22 c280 -65 489 -184 522 -297 23 -74 -15
-172 -162 -422 -153 -261 -216 -391 -236 -488 l-7 -35 -118 141 c-155 187
-169 209 -272 402 -136 256 -225 373 -397 520 -21 18 -36 36 -33 40 8 12 123
64 198 89 165 55 389 77 505 50z m-799 -341 c121 -92 255 -219 275 -262 8 -18
25 -98 36 -177 32 -233 68 -393 127 -564 154 -450 295 -730 453 -898 32 -34
109 -100 172 -145 l115 -84 -20 -39 c-30 -60 -26 -145 9 -209 35 -65 108 -129
191 -170 58 -29 63 -34 63 -64 l0 -33 -367 -7 c-203 -3 -696 -9 -1098 -12
-485 -3 -947 -14 -1378 -30 -356 -13 -654 -24 -662 -24 -12 0 -15 15 -15 65 0
84 -31 178 -80 243 l-39 51 60 221 c32 122 59 223 59 225 0 2 15 7 33 10 129
28 363 187 622 424 203 185 354 364 810 961 199 261 274 351 381 458 74 72
139 132 146 132 6 0 55 -33 107 -72z m2061 -2083 l25 -14 -32 -1 c-23 0 -33 5
-33 15 0 18 8 18 40 0z m-400 -116 c-19 -12 -50 -34 -68 -50 -21 -19 -44 -29
-65 -29 -51 0 -60 -11 -52 -64 4 -25 4 -46 0 -46 -13 0 -51 23 -78 49 -52 47
-78 124 -39 115 9 -2 78 7 152 20 74 13 146 24 160 25 23 1 22 -1 -10 -20z
m494 -35 c35 -5 46 -11 46 -25 0 -16 -14 -18 -157 -21 -87 -2 -176 -1 -198 2
l-40 6 50 16 c28 9 61 19 75 21 42 7 174 7 224 1z m319 -218 c27 -54 46 -123
47 -163 0 -23 -1 -23 -150 -23 l-150 0 0 63 c0 61 1 63 40 90 41 29 92 95 105
136 7 23 7 23 45 -14 21 -20 49 -60 63 -89z m-4978 -47 c88 -6 176 -15 196
-20 46 -12 64 -50 64 -139 l0 -65 -160 -7 c-88 -3 -208 -8 -267 -10 l-106 -3
-6 35 c-3 19 -6 65 -6 102 0 57 4 71 26 98 23 27 32 31 63 26 20 -3 108 -10
196 -17z"/>
</g>
</svg>
