<svg xmlns="http://www.w3.org/2000/svg" xmlns:xlink="http://www.w3.org/1999/xlink" version="1.1" x="0px" y="0px" viewBox="-434 236 90 112.5" style="enable-background:new -434 236 90 90;" xml:space="preserve"><style type="text/css">
	.st0{stroke:#fff;stroke-miterlimit:10;}
</style><path fill="#fff" class="st0" d="M-378.9,296c4.7,3.5,5,3.8,6,3.8s5.5-1.6,6.7-2.1c0.2-0.1,0.4-0.1,0.5,0c1.2,0.9,8.3,6.2,11.2,9.1  c0.2,0.2,1.5,2.1,1.6,2.5c0.7,1.7,1.7,4.3-1.9,5.4c-4.4,1.4-18.9,3.2-26.3,1c-1.6-0.5-2.8-0.8-3.6-1.1c-0.4-0.1-2.2-2.2-3-3.1  c-0.1-0.1-0.5-0.7-0.6-1c-1.4-2.9-7.5-15.7-9.6-19.5c-0.3-0.5-2.2-2.7-2.6-3c-2.6-1.9-8.1-6.2-9-7.2c-1-1.1,0,34.7,0,34.7l-4.4,0.2  l-4.4-39c0,0-12.7-11.9-4.9-20.7c5.7-6.4,8.6-9.4,9.8-10.5c0.4-0.4,0.8-0.2,1.2,0.5c0,0.1,19.9,34.8,28.5,45.7  C-382.9,292.4-379.4,295.6-378.9,296z"/></svg>