<svg xmlns="http://www.w3.org/2000/svg" xmlns:xlink="http://www.w3.org/1999/xlink" viewBox="0 0 76 65" version="1.1" x="0px" y="0px"><title>Shape_162</title><desc>Created with Sketch.</desc><g stroke="none" stroke-width="1" fill="#fff" fill-rule="evenodd"><g transform="translate(-30.000000, -1800.000000)" fill="#fff"><g transform="translate(29.000000, 1800.000000)"><path d="M46.54,31.72 C48.1295215,31.5446066 49.690927,32.2355953 50.63,33.53 C51.5972805,34.9035245 51.860397,36.6526935 51.34,38.25 C50.87,39.64 49.45,40.32 48.18,40.85 C46.18,41.7 43.94,42.55 41.83,41.96 C40.9759293,41.7906619 40.2885784,41.1573724 40.05,40.32 C39.9977974,39.6849581 40.133419,39.0485799 40.44,38.49 C41.0243928,36.9765044 41.7899688,35.5393705 42.72,34.21 C43.6160353,32.9096341 44.9886023,32.0149504 46.54,31.72 L46.54,31.72 Z"/><path d="M33,45.09 C27.92,40.09 28,31.34 30.09,24.25 C31.69,18.58 34.44,13 39,9.66 C41.13,8.07 44.38,7.2 46,9.34 C40.82,13.59 36.19,19.1 34.44,25.88 C32.69,32.66 34.44,40.81 39.84,44.76 C42.6774718,46.6701437 46.0098176,47.7125877 49.43,47.76 C57.0138386,48.1212771 64.4935342,45.8808966 70.63,41.41 C72.52,40.04 74.82,38.41 76.86,39.5 C66.94,51.14 49.93,54.9 36.59,48.38 C35.26,47.73 33.73,46.98 32.4,47.63 C22.0857693,52.5070161 9.83557131,50.5533378 1.55,42.71 C1.15855627,42.229226 0.962228677,41.6188256 1,41 C0.644382265,31.0736987 4.14989038,21.3959156 10.78,14 C12.1598027,12.73022 13.3189339,11.2399085 14.21,9.59 C15,7.78 15,5.42 13.56,4.2 C12.12,2.98 13.23,0.41 14.89,0.06 C16.55,-0.29 18.19,1 19,2.67 C20.67,6.15 19.35,10.5 17.21,13.67 C15.07,16.84 12.16,19.33 10.11,22.57 C7.95410813,26.031492 6.87191549,30.0540472 7,34.13 C7.79216048,33.4399674 8.85175309,33.1410393 9.88775005,33.3153191 C10.923747,33.489599 11.8272123,34.1187612 12.35,35.03 C13.3739796,37.0470082 12.5848629,39.5124405 10.58,40.56 C9.89648594,40.9752308 9.64808266,41.8468212 10.01,42.56 C10.3470633,43.2236338 10.8863662,43.7629367 11.55,44.1 C17.91,47.94 25.79,46.57 33,45.09 Z"/></g></g></g></svg>