<svg xmlns="http://www.w3.org/2000/svg" xmlns:xlink="http://www.w3.org/1999/xlink" version="1.1" x="0px" y="0px" viewBox="190 130 100 125" enable-background="new 190 130 100 100" xml:space="preserve"><path fill="#fff" d="M254.6,199.1c2.9,2.2,5.3,5.1,7,8.4c-2.2-1.4-4.9-2.3-7.7-2.3c-7.3,0-13.2,5.7-13.7,12.8c-0.5-7.2-6.4-12.8-13.7-12.8  c-2.9,0-5.5,0.8-7.7,2.3c1.7-3.3,4.1-6.2,7-8.4c-6,3.1-10.6,8.7-12.3,15.4c-0.5,4.1,0.2,6.9,2.7,10.5h47.9c2.6-3.7,3.1-4.9,2.8-10.5  C265.1,207.8,260.6,202.2,254.6,199.1z M277.9,185.9c-0.8-1.6-2-3.2-3.4-5.1c-3.9-5.3-8.7-12-8.7-20.4c0-11-5.3-17.1-9.7-20.3  C251,136.4,245,135,241,135c-0.1,0-0.1,0-0.2,0c-4,0-10.1,1.2-15.2,4.7c-3,2.1-5.4,4.7-7.1,7.8c-2,3.7-3,8-3,13  c0,8.1-5.2,14.7-9.3,19.9c-1.7,2-3.1,3.8-4,5.5c-4.3,7.7-3.2,13.6-2.2,16.4c1.1,2.9,2.9,5.1,5,5.9l1.1,0.5v-6.5  c0-5.5,1.8-13.7,6.7-13.7c5.2,0,8.4,1.8,10.7,3c0.7,0.3,1.3,0.7,1.9,0.9c0.6,0.3,1.2,0.4,1.7,0.4c1,0,1.9-0.5,2.7-1.6  c0.3-0.5,3.5-4.6,3.8-11v-0.6l-0.5-0.2c-5.1-2.1-8.6-6.9-9-12.4c8-4.3,15.1-11,20.7-19.3c2.3,5.1,6,9.1,10.5,11.2v7  c0,6-3.8,11.4-9.3,13.5l-0.6,0.2v0.6c0.2,6.4,3.5,10.5,3.8,10.9c0.8,1.1,1.7,1.6,2.7,1.6c1.1,0,2.1-0.6,3.5-1.3  c2.3-1.3,5.5-3,10.7-3c4.9,0,6.7,8.2,6.7,13.7v6.4l1.1-0.4c1.9-0.7,4.7-3,6.1-6.9C281.2,198,281.7,192.8,277.9,185.9z M246.4,169.1  c-1.2-0.4-2.3-1.2-3.2-2.3c-0.4-0.5-1-0.8-1.6-0.8c-0.7,0-1.4,0.4-1.8,1.1c-0.4-0.7-1-1.1-1.8-1.1c-0.7,0-1.2,0.4-1.6,0.9  c-0.5,0.5-1,1-1.5,1.4c-0.6,0.4-1.2,0.6-1.9,0.8c0.9,3.3,3.6,5.7,6.7,5.7C242.8,174.8,245.5,172.4,246.4,169.1z M238.1,169.9  c0.5-0.3,1.1-0.5,1.7-0.5c0.6,0,1.2,0.2,1.6,0.5c-0.1,0.9-0.8,1.5-1.6,1.5C239,171.4,238.4,170.8,238.1,169.9z"/><g>
</g>
</svg>