<svg xmlns="http://www.w3.org/2000/svg" xmlns:xlink="http://www.w3.org/1999/xlink" version="1.1" x="0px" y="0px" viewBox="0 0 100 125" style="enable-background:new 0 0 100 100;" xml:space="preserve"><polygon fill="#fff" points="60.7408676,12.957346 40.5018539,12.957346 36.6086769,30.7291088 64.635025,30.7291088 "/><path fill="#fff" d="M29.1805954,30.7291088l3.8934212-17.7717628h-8.1879864c-3.3415127,0-6.5115643,1.4793921-8.6578922,4.0404434  L5.5064416,29.7911816c-0.0731258,0.3106155-0.1332355,0.6231365-0.1801443,0.9379272h23.230608H29.1805954z"/><path fill="#fff" d="M36.679409,37.2989502l13.1764297,49.6386032c0.5120049,0.0276337,1.0240097,0.0243759,1.5353394-0.0160828  l13.1721306-49.6225204H36.679409z"/><path fill="#fff" d="M94.8144302,38.2941628c0.0532303-0.3305092,0.0930786-0.6621857,0.1171494-0.9952126H71.8159027h-0.595871  l-13.0251465,49.069252c0.4520798-0.1516495,0.8977127-0.3263931,1.3311272-0.5360107L94.8144302,38.2941628z"/><path fill="#fff" d="M71.887619,30.7291088h22.9463959c0.121582-0.2605247,0.0653839-0.1401081,0.1869659-0.4006329L83.8489761,16.9977837  c-2.1463242-2.5610476-5.3163757-4.0404377-8.6578827-4.0404377h-7.8205261l3.8942871,17.7717628H71.887619z"/><path fill="#fff" d="M28.7271652,37.2989502H5.3262978c0.0276294,0.382637,0.077117,0.7633095,0.1433048,1.1424484l35.1258316,47.3190842  c0.5737724,0.2871628,1.1690941,0.51194,1.7754097,0.6965637L29.3220577,37.2989502H28.7271652z"/></svg>